HIERARCHY
ROOT Hips
{
  OFFSET 265.287 66.7526 -254.649
  CHANNELS 6 Xposition Yposition Zposition Zrotation Xrotation Yrotation
  JOINT LeftUpLeg
  {
    OFFSET 8.64259 1.95398 -2.38835
    CHANNELS 3 Zrotation Xrotation Yrotation
    JOINT LeftLeg
    {
      OFFSET 43.7702 0 0
      CHANNELS 3 Zrotation Xrotation Yrotation
      JOINT LeftFoot
      {
        OFFSET 40.6238 0 0
        CHANNELS 3 Zrotation Xrotation Yrotation
        JOINT LeftToeBase
        {
          OFFSET 12.7242 0 0
          CHANNELS 3 Zrotation Xrotation Yrotation
          End Site
          {
            OFFSET 0 0 0
          }
        }
      }
    }
  }
  JOINT RightUpLeg
  {
    OFFSET -8.2249 1.95398 -2.59336
    CHANNELS 3 Zrotation Xrotation Yrotation
    JOINT RightLeg
    {
      OFFSET 43.5653 0 0
      CHANNELS 3 Zrotation Xrotation Yrotation
      JOINT RightFoot
      {
        OFFSET 40.6238 0 0
        CHANNELS 3 Zrotation Xrotation Yrotation
        JOINT RightToeBase
        {
          OFFSET 12.7242 0 0
          CHANNELS 3 Zrotation Xrotation Yrotation
          End Site
          {
            OFFSET 0 0 0
          }
        }
      }
    }
  }
  JOINT Spine
  {
    OFFSET 0.165834 0.87714 6.61349
    CHANNELS 3 Zrotation Xrotation Yrotation
    JOINT Spine1
    {
      OFFSET 7.38963 1.71661e-005 0
      CHANNELS 3 Zrotation Xrotation Yrotation
      JOINT Spine2
      {
        OFFSET 11.9445 1.14441e-005 0
        CHANNELS 3 Zrotation Xrotation Yrotation
        JOINT Spine3
        {
          OFFSET 14.7254 4.19617e-005 0
          CHANNELS 3 Zrotation Xrotation Yrotation
          JOINT Spine4
          {
            OFFSET 10.9679 0 0
            CHANNELS 3 Zrotation Xrotation Yrotation
            JOINT RightShoulder
            {
              OFFSET 2.46616 -1.6653 3.69651
              CHANNELS 3 Zrotation Xrotation Yrotation
              JOINT RightArm
              {
                OFFSET 13.0012 0 0
                CHANNELS 3 Zrotation Xrotation Yrotation
                JOINT RightForeArm
                {
                  OFFSET 28.7848 1.52588e-005 0
                  CHANNELS 3 Zrotation Xrotation Yrotation
                  JOINT RightHand
                  {
                    OFFSET 26.5688 1.52588e-005 0
                    CHANNELS 3 Zrotation Xrotation Yrotation
                    End Site
                    {
                      OFFSET 0 0 0
                    }
                  }
                }
              }
            }
            JOINT LeftShoulder
            {
              OFFSET 2.38034 -1.29275 -3.7523
              CHANNELS 3 Zrotation Xrotation Yrotation
              JOINT LeftArm
              {
                OFFSET 16.3182 6.10351e-005 0
                CHANNELS 3 Zrotation Xrotation Yrotation
                JOINT LeftForeArm
                {
                  OFFSET 27.0901 0 0
                  CHANNELS 3 Zrotation Xrotation Yrotation
                  JOINT LeftHand
                  {
                    OFFSET 24.5451 1.52588e-005 0
                    CHANNELS 3 Zrotation Xrotation Yrotation
                    End Site
                    {
                      OFFSET 0 0 0
                    }
                  }
                }
              }
            }
            JOINT Neck
            {
              OFFSET 5.0226 -0.0266342 0
              CHANNELS 3 Zrotation Xrotation Yrotation
              JOINT Head
              {
                OFFSET 6.69364 2.86102e-005 0
                CHANNELS 3 Zrotation Xrotation Yrotation
                End Site
                {
                  OFFSET 0 0 0
                }
              }
            }
          }
        }
      }
    }
  }
}
MOTION
Frames:	17
Frame Time:	0.0416667
-295.15 42.2215 -263.468 91.8371 -46.0162 96.974 -168.883 -35.2455 83.6818 -120.619 -41.2655 21.3503 -58.5039 -36.0861 74.7358 -41.4486 -1.62269 31.8485 169.794 47.9137 104.87 -25.9451 87.2288 -110.497 2.76613 -2.84976 89.9996 -165.042 -51.6043 3.62458 1.20356 5.31684 -90.8535 16.2573 1.94139 -2.04416 4.58605 1.84956 -2.12761 -17.954 2.46592 -1.36616 2.0586 2.46591 -1.36617 134.903 -36.6308 -24.7566 43.6373 -42.6762 60.2905 -53.6373 47.5951 -115.182 3.75974 -1.83651 -49.9633 -49.2098 -41.9835 143.17 81.7202 53.8817 -117.98 -77.6918 25.9975 -0.094686 53.4705 -55.6425 -97.7583 77.8573 8.66058 -2.48101 20.4898 18.1259 42.2927 
-295.941 42.2813 -264.176 91.6177 -45.9575 97.0674 -169.866 -35.473 84.7179 -120.195 -40.4916 19.466 -56.218 -35.9947 76.5099 -41.8369 -2.30971 32.6462 168.74 49.5788 105.817 -38.6283 87.4057 -97.904 3.20845 -2.78348 89.374 -167.233 -55.9655 1.12455 1.19199 5.33815 -90.8692 16.2144 1.91118 -2.06942 4.54307 1.81827 -2.15151 -17.9964 2.4447 -1.39935 2.01627 2.44469 -1.39936 135.207 -37.047 -24.5752 42.703 -42.3195 60.3049 -54.7554 48.4922 -114.791 3.94013 -1.9869 -51.5407 -48.9122 -42.3334 143.435 82.1027 52.8307 -118.231 -78.533 26.0699 -0.0947445 53.9212 -55.6821 -97.5503 78.1435 8.6458 -2.42777 21.6538 18.4669 42.096 
-298.096 42.7602 -266.013 90.9801 -45.7839 97.3353 -142.627 -45.2914 95.5908 -124.422 -27.2551 37.3519 -92.7196 -41.5846 26.7526 -42.8781 -4.25645 34.8619 165.426 53.6532 108.832 -0.695058 86.4238 -135.32 4.61622 -6.61658 87.9345 -173.762 -63.6313 -5.67892 1.15898 5.39742 -90.9154 16.095 1.82409 -2.14467 4.42346 1.72796 -2.22284 -18.1141 2.38424 -1.49735 1.89858 2.38426 -1.49734 136.076 -38.2263 -24.0576 39.8326 -41.2436 60.2208 -57.9845 50.9858 -113.581 4.01043 -2.24924 -56.1366 -48.0547 -43.3394 144.186 83.0449 49.8849 -118.741 -80.8704 26.0619 -0.094738 54.9168 -55.5984 -97.3187 78.9442 8.61001 -2.27198 25.0937 19.4391 41.529 
-301.035 44.2877 -268.251 89.949 -45.4943 97.7572 -132.083 -45.7275 103.189 -115.665 -20.0674 45.6453 -94.1512 -33.816 21.9657 -44.4505 -7.43118 38.3311 160.197 57.4776 113.716 5.0742 86.3141 -138.664 7.56958 -9.81733 87.819 -176.459 -65.0525 -8.01918 1.1074 5.48473 -90.9922 15.919 1.68567 -2.27206 4.24702 1.58407 -2.34401 -18.2873 2.29049 -1.66053 1.72529 2.29049 -1.66053 137.436 -40.0332 -23.2509 34.666 -39.3696 59.6783 -62.3651 54.4966 -112.039 2.83286 -1.98499 -63.3592 -46.6938 -44.9292 145.344 84.2339 45.4421 -119.093 -84.4166 23.3005 -0.0323449 48.9081 -51.133 -106.358 80.1545 8.6313 -2.02321 30.8306 20.9177 40.6695 
-304.352 46.7292 -270.549 88.5424 -45.0831 98.3108 -150.903 -42.8199 102.099 -101.356 -19.8282 29.8502 -74.9039 -42.7444 56.5226 -46.1889 -12.5377 43.6249 154.726 59.2306 118.923 -9.91358 87.439 -119.377 14.4881 -12.8472 93.3026 -164.547 -39.4027 7.22179 1.04032 5.5879 -91.1008 15.7105 1.50126 -2.45562 4.03798 1.39176 -2.51928 -18.492 2.16973 -1.89114 1.52068 2.16974 -1.89114 139.204 -42.3094 -22.2044 26.4777 -36.4842 58.1365 -64.5943 58.0542 -112.693 -0.412715 -0.164778 -72.249 -44.8855 -47.022 146.826 85.5246 39.9598 -119.011 -88.5104 -18.221 -0.917883 79.3608 -60.3791 -72.1564 81.7145 9.20654 -1.75789 38.781 22.5232 39.9859 
-308.313 49.2181 -273.486 86.7765 -44.5449 98.9716 -155.092 -46.1769 107.243 -91.21 -10.9943 19.727 -69.0455 -45.1003 66.3143 -45.3193 -21.2024 53.1251 149.935 59.3499 123.55 -95.609 86.3265 -28.7108 33.073 -11.0543 110.018 161.374 48.4868 48.4447 0.960678 5.69473 -91.2415 15.4941 1.27618 -2.69858 3.82081 1.15622 -2.75209 -18.7033 2.02805 -2.19062 1.30931 2.02804 -2.19063 141.297 -44.895 -20.963 14.2196 -32.0758 55.0526 -59.1616 60.2296 -120.336 -5.38681 4.07322 -81.5094 -42.678 -49.531 148.562 86.9637 33.8872 -118.404 -91.7717 -12.3089 -5.0229 89.5965 -59.9109 -62.5472 83.6735 11.4214 -1.66391 48.2831 23.8372 40.7957 
-313.379 51.1155 -278.015 84.6729 -43.8785 99.7127 -150.815 -51.1162 115.636 -78.6967 3.74515 14.2183 -67.9362 -45.8464 64.8568 -32.6029 -32.4627 72.8055 145.169 57.7271 128.662 -113.785 78.9878 -4.90538 78.8387 12.6176 123.313 120.548 39.9541 56.3009 0.871379 5.79359 -91.4142 15.2921 1.01628 -3.00163 3.61803 0.883244 -3.0434 -18.8988 1.87113 -2.55788 1.11384 1.87113 -2.55789 143.634 -47.6373 -19.5681 -3.45923 -24.9183 50.2561 -43.0438 57.6448 -137.531 -11.182 9.61961 -89.6229 -40.1114 -52.3634 150.504 88.6966 27.6303 -117.295 -94.143 -5.19786 -9.1743 100.476 -58.2182 -52.2205 86.8936 -4.67602 -0.436348 70.436 31.3775 21.9968 
-319.411 52.2143 -283.937 82.2662 -43.0906 100.507 -139.972 -55.7642 127.66 -62.7968 20.6452 11.1919 -69.1076 -43.6567 55.0295 0.289328 -33.1721 106.166 140.112 55.3831 134.536 -109.871 66.2425 0.773363 151.004 15.3491 85.4744 129.512 -22.0417 -4.0792 0.775388 5.87515 -91.6164 15.1233 0.728341 -3.36141 3.44816 0.579785 -3.39017 -19.0597 1.70447 -2.98769 0.952951 1.70448 -2.9877 146.128 -50.3988 -18.0606 -28.1222 -12.5803 45.0165 -24.1703 44.6068 -155.848 -17.3684 17.25 -96.9978 -37.2144 -55.4213 152.632 90.8731 21.5366 -115.737 -95.2643 2.72467 -13.46 110.555 -55.1864 -42.5435 -103.858 38.7811 179.457 61.6395 -32.4611 160.144 
-326.087 53.6965 -290.076 79.6064 -42.1977 101.327 -124.211 -59.1073 143.577 -41.5468 37.5471 8.43816 -74.0687 -36.2704 34.527 36.1437 -8.76401 130.555 134.964 54.9568 139.794 -97.9737 49.8682 3.09577 178.506 -18.4773 84.6783 99.1237 -44.6141 -55.3807 0.675599 5.93323 -91.8435 14.9998 0.420135 -3.76995 3.32347 0.253929 -3.78477 -19.1736 1.53307 -3.47006 0.839011 1.53306 -3.47007 148.701 -53.07 -16.4812 -61.4135 6.85922 44.1517 -11.252 18.1851 -165.726 -24.4623 26.3489 -101.048 -33.9931 -58.6105 154.957 93.5824 15.8807 -113.775 -94.8778 10.9813 -18.1028 118.875 -51.0306 -34.4119 -104.021 12.529 -179.123 65.8798 -30.1131 -168.315 
-333.946 55.9713 -297.084 76.7551 -41.2241 102.148 -102.619 -60.54 165.48 -11.5073 52.9196 2.832 -77.2815 -24.1406 7.64146 75.5952 28.6197 117.252 130.783 54.9108 143.882 -82.4094 38.5089 4.98393 -173.558 -36.7184 95.4513 77.5986 -42.5019 -81.9299 0.574767 5.96473 -92.0893 14.9275 0.0999193 -4.21578 3.24974 -0.0855537 -4.21611 -19.2348 1.3613 -3.99158 0.777812 1.36131 -3.99157 151.278 -55.5729 -14.873 -106.104 27.2225 55.9026 -2.47034 -17.2522 -167.286 -32.8984 36.0307 -101.811 -30.4204 -61.8469 157.533 96.8348 10.867 -111.452 -92.7898 19.0543 -23.3788 125.192 -46.1515 -28.0322 -102.48 43.6344 -173.512 45.9175 -13.1054 163.907 
-344.201 58.1508 -306.064 73.7826 -40.1991 102.947 -96.3888 -57.7934 173.124 0.0446977 58.298 -0.0494875 -67.4208 -19.2841 -9.70807 118.696 31.0819 75.648 129.903 53.8431 145.572 -60.136 34.1689 6.51463 -172.849 -44.0235 110.749 69.2241 -38.7744 -91.5768 0.475355 5.96938 -92.3463 14.9069 -0.223887 -4.68449 3.22762 -0.429615 -4.67017 -19.2428 1.19286 -4.53593 0.76987 1.19286 -4.53593 153.786 -57.8574 -13.2846 -157.131 33.8559 78.8928 7.54437 -50.3214 -161.226 -42.655 44.7909 -99.1264 -26.4307 -65.0538 160.454 100.569 6.63608 -108.826 -88.8791 26.415 -29.5384 129.699 -40.979 -23.1967 -103.888 61.8659 -166.804 39.7108 2.18317 153.983 
-354.907 59.764 -315.618 70.7633 -39.1541 103.699 -97.9058 -54.363 173.502 -1.44023 58.3621 0.393165 -54.8103 -19.6749 -16.6136 127.185 19.7383 58.8247 145.091 45.1708 137.662 -9.98517 34.2961 1.46822 177.102 -48.7622 130.398 66.5553 -36.7486 -93.9822 0.379432 5.9489 -92.6059 14.9349 -0.543154 -5.15999 3.25391 -0.769385 -5.13121 -19.201 1.03067 -5.08529 0.811644 1.03067 -5.0853 156.151 -59.8964 -11.7733 164.702 28.0075 94.817 28.8434 -72.3384 -141.023 -54.2366 51.6124 -92.5915 -21.9076 -68.1614 163.867 104.667 3.26522 -105.984 -83.168 32.5686 -36.7027 132.729 -35.8858 -19.5782 -107.436 71.2567 -159.112 37.3219 11.7279 151.559 
-365.359 60.7532 -325.115 67.7662 -38.1172 104.382 -97.8776 -51.1075 175.004 -1.80989 58.4212 0.515829 -45.5208 -20.3501 -19.9787 123.78 13.8117 53.777 140.001 48.6395 142.219 -2.40507 45.563 0.664077 171.719 -41.2608 133.667 67.9121 -36.4968 -90.5708 0.288537 5.90631 -92.8602 15.0056 -0.850924 -5.62622 3.32297 -1.09733 -5.58353 -19.1156 0.876506 -5.62229 0.897017 0.876493 -5.62231 158.305 -61.6847 -10.4 140.731 20.3142 101.377 84.455 -80.5522 -85.4205 -68.3801 56.0798 -81.9496 -16.667 -71.1056 167.982 108.978 0.769691 -103.038 -75.9257 37.1345 -44.7418 134.605 -31.1467 -16.8746 -112.484 76.3951 -150.633 35.9073 17.8785 151.93 
-375.136 61.212 -334.08 64.8484 -37.1104 104.973 -97.8497 -48.0111 176.103 -2.22131 58.5802 0.660196 -38.4312 -21.0931 -21.3478 118.416 11.0972 52.413 130.394 53.6889 149.456 -5.29106 60.799 2.25684 165.055 -30.9395 132.62 72.9471 -37.0129 -81.2018 0.203449 5.84511 -93.1018 15.1128 -1.1421 -6.06914 3.42849 -1.4076 -6.01332 -18.9936 0.731056 -6.13201 1.01908 0.731055 -6.13201 160.186 -63.2331 -9.2251 124.8 14.1787 103.593 129.005 -78.3235 -40.595 -84.1952 57.834 -68.5443 -10.4366 -73.8259 173.096 113.346 -0.886997 -100.107 -67.7297 39.9213 -53.2002 135.586 -26.9397 -14.8552 -117.886 79.2822 -142.345 34.7786 22.0123 153.524 
-384.258 61.2644 -342.45 62.0546 -36.15 105.453 -97.9988 -45.1498 176.746 -2.62558 58.8156 0.810648 -32.8598 -21.727 -21.6571 113.247 9.77047 52.3884 120.086 57.9212 157.004 -15.2794 76.5781 10.3807 156.116 -21.2075 132.03 80.4732 -36.2778 -66.8016 0.124458 5.76878 -93.3246 15.25 -1.413 -6.47692 3.56408 -1.69608 -6.4089 -18.8418 0.594331 -6.60204 1.17082 0.594336 -6.60204 161.743 -64.5637 -8.30349 113.457 9.70931 104.057 145.346 -75.7407 -24.0354 -99.1607 56.9956 -55.211 -2.84286 -76.2582 179.601 117.629 -1.77751 -97.303 -59.3798 40.9632 -61.3808 135.855 -23.3702 -13.3617 -123.213 81.058 -134.577 33.7619 25.029 155.547 
-392.986 61.0747 -350.43 59.4176 -35.2474 105.805 -98.2998 -42.5837 177.047 -3.04344 59.0604 0.972515 -28.2991 -22.2209 -21.3748 108.726 9.00495 52.841 109.808 61.2935 164.324 -117.795 85.5861 111.382 145.318 -14.2234 133.12 87.7157 -32.8107 -50.2375 0.0517011 5.68085 -93.5239 15.411 -1.66109 -6.84021 3.72355 -1.95983 -6.76103 -18.6672 0.46598 -7.02271 1.34542 0.465975 -7.02271 162.942 -65.7074 -7.67921 105.014 6.49018 103.811 153.603 -74.5959 -15.7312 -111.251 54.318 -44.195 6.56762 -78.3293 -172.034 121.705 -1.9943 -94.7152 -51.6448 40.4864 -68.5968 135.531 -20.4942 -12.2954 -129.524 82.3573 -126.193 32.8179 27.5651 157.544 
-400.682 60.2821 -357.422 56.9588 -34.4107 106.011 -98.5993 -40.355 177.189 -3.45882 59.2539 1.13884 -24.3848 -22.5889 -20.6933 104.864 8.48086 53.4266 100.91 64.0192 166.213 -140.808 69.878 132.911 138.006 -10.2857 134.538 92.0907 -26.9695 -34.5775 -0.0149543 5.58435 -93.6963 15.59 -1.88459 -7.15253 3.90119 -2.19676 -7.06332 -18.476 0.345743 -7.38735 1.53661 0.345749 -7.38735 163.767 -66.7004 -7.38194 98.605 4.16787 103.283 159.203 -74.5021 -10.2604 -120.122 50.7138 -35.9991 18.1865 -79.9544 -161.407 125.483 -1.6405 -92.3965 -45.0283 38.8061 -74.4044 134.668 -18.3385 -11.604 -139.354 83.4429 -114.597 31.9402 30.0762 159.266 
